<svg xmlns="http://www.w3.org/2000/svg" width="50.876" height="52.094" viewBox="0 0 50.876 52.094">
  <defs>
    <style>
      .cls-1 {
        fill: #34a3d6;
        fill-rule: evenodd;
      }
    </style>
  </defs>
  <path class="cls-1" d="M833.741,615.375l-10.884,10.886-5.014-5.015-1.71,1.71,6.724,6.724,12.593-12.595Zm-11.216,17.466a7.474,7.474,0,1,1,3.62-14.013l1.173-2.114a9.893,9.893,0,1,0,5.1,8.653H830A7.482,7.482,0,0,1,822.525,632.841Zm25.9-3.364,0.007-8.006-5.369-1.464a20.619,20.619,0,0,0-1.994-4.817l3.2-5.219-5.694-5.7-5.272,3.136a20.692,20.692,0,0,0-4.812-2l-1.472-5.816h-8.044l-1.468,5.816a20.633,20.633,0,0,0-4.763,1.971l-5.088-3.023-5.7,5.672,3,5.1a20.644,20.644,0,0,0-2.019,4.855l-5.369,1.686-0.016,8.01,5.377,1.261a20.624,20.624,0,0,0,1.969,4.772l-3.221,4.949,5.677,5.7,5.284-2.852a20.691,20.691,0,0,0,4.831,2.018l1.492,6.149,8.071,0.011,1.443-6.146a20.741,20.741,0,0,0,4.8-1.991l5.292,3.1,5.7-5.69-3.216-5.183a20.652,20.652,0,0,0,2-4.813ZM841.21,640.6l-3.023,3.018-4.924-2.885-0.619.382a18.268,18.268,0,0,1-5.449,2.254l-0.73.17-1.344,5.725-4.254-.006-1.391-5.732-0.722-.172a18.168,18.168,0,0,1-5.443-2.266l-0.6-.369-4.919,2.654-3.023-3.034,2.981-4.58-0.4-.652a18.263,18.263,0,0,1-2.251-5.452l-0.17-.732-4.955-1.16,0.009-4.319,4.977-1.562,0.159-.669a18.249,18.249,0,0,1,2.27-5.443l0.387-.621-2.785-4.729,3.039-3.025,4.722,2.8,0.622-.384a18.253,18.253,0,0,1,5.4-2.234l0.716-.169,1.363-5.4h4.28l1.367,5.4,0.715,0.167a18.3,18.3,0,0,1,5.447,2.26l0.623,0.388,4.9-2.92,3.018,3.021-2.972,4.852,0.393,0.633a18.218,18.218,0,0,1,2.258,5.448l0.164,0.7,4.96,1.353,0,4.32-4.963,1.373-0.166.7a18.222,18.222,0,0,1-2.264,5.446l-0.395.637Z" transform="translate(-797.562 -599.594)"/>
</svg>
