<svg xmlns="http://www.w3.org/2000/svg" width="51.625" height="38.47" viewBox="0 0 51.625 38.47">
  <defs>
    <style>
      .cls-1 {
        fill: #3ca8d9;
        fill-rule: evenodd;
      }
    </style>
  </defs>
  <path class="cls-1" d="M353,1240.12a25.9,25.9,0,0,1,25.81-25.13,25.449,25.449,0,0,1,14.942,4.83l-2.039,2.04a22.684,22.684,0,0,0-12.9-4.01,23.057,23.057,0,0,0-22.977,22.27H353Zm25.824,13.36a8.11,8.11,0,0,1,0-16.22,7.931,7.931,0,0,1,4.068,1.15l0.532,0.31,18.091-18.13,2.012,2.02-3.519,3.53,0.359,0.54a25.851,25.851,0,0,1,4.268,13.44h-2.848a23.016,23.016,0,0,0-3.3-11.06l-0.526-.87-12.52,12.55,0.315,0.54a7.96,7.96,0,0,1,1.15,4.09A8.1,8.1,0,0,1,378.822,1253.48Zm0-13.36a5.255,5.255,0,1,0,5.236,5.25A5.252,5.252,0,0,0,378.822,1240.12Z" transform="translate(-353 -1215)"/>
</svg>
