<svg xmlns="http://www.w3.org/2000/svg" width="41.844" height="46.782" viewBox="0 0 41.844 46.782">
  <defs>
    <style>
      .cls-1 {
        fill: #34a3d6;
        fill-rule: evenodd;
      }
    </style>
  </defs>
  <path class="cls-1" d="M357.475,596.646h-8.091a1.293,1.293,0,0,0-1.3,1.283v44.226a1.293,1.293,0,0,0,1.3,1.283h8.091a1.293,1.293,0,0,0,1.3-1.283V597.929A1.293,1.293,0,0,0,357.475,596.646ZM350.269,636.6v-2.3h2.4v-2.155h-2.4v-2.305h2.4v-2.156h-2.4v-2.305h2.4v-2.155h-2.4v-2.3h2.4v-2.156h-2.4v-2.3h2.4V614.3h-2.4V612h2.4V609.84h-2.4v-2.305h2.4V605.38h-2.4v-2.306h2.4v-2.155h-2.4V598.8h6.321v42.48h-6.321v-2.523h2.4V636.6h-2.4Zm12.787-3.84a9.845,9.845,0,0,0,1.521-.621l3.708,2.739,3.278-3.229L368.8,627.99a9.475,9.475,0,0,0,.632-1.5l4.583-.65,0-4.569-4.582-.657a9.556,9.556,0,0,0-.63-1.5l2.773-3.659-3.274-3.232-3.71,2.734a9.791,9.791,0,0,0-1.521-.622l-0.663-4.522h-2.317v2.156h0.425l0.6,4.1,0.725,0.168a7.586,7.586,0,0,1,2.255.923l0.633,0.388,3.364-2.478,0.6,0.593-2.514,3.315,0.392,0.625a7.37,7.37,0,0,1,.935,2.226l0.17,0.715,4.152,0.6v0.837l-4.153.59-0.17.714a7.42,7.42,0,0,1-.939,2.226l-0.392.623,2.508,3.321-0.6.591-3.36-2.483-0.633.386a7.612,7.612,0,0,1-2.258.922l-0.725.167-0.606,4.093h-0.406l-0.006,2.155,2.3,0.007Zm2.035-9.217a4.974,4.974,0,0,0-5-4.933v2.156a2.778,2.778,0,1,1,0,5.556v2.156A4.974,4.974,0,0,0,365.091,623.546Zm20.059-26.412h-4.8V636.2l1.271-.207c1.033-.169,4.012-0.353,5.39.808a2.144,2.144,0,0,1,.734,1.59,3.073,3.073,0,0,1-3.079,2.889h-24.58v2.156h24.58a5.242,5.242,0,0,0,5.237-4.784h0.043V601.868A4.773,4.773,0,0,0,385.15,597.134Zm-2.613,2.156h2.613a2.6,2.6,0,0,1,2.615,2.578v32.825a8.885,8.885,0,0,0-4.382-.984c-0.305,0-.589.009-0.846,0.025V599.29Zm-4.421,3.279H360.089v2.155h18.027v-2.155Z" transform="translate(-348.094 -596.656)"/>
</svg>
