<svg xmlns="http://www.w3.org/2000/svg" width="35.97" height="36" viewBox="0 0 35.97 36">
  <defs>
    <style>
      .cls-1 {
        fill: #fff;
        fill-rule: evenodd;
      }
    </style>
  </defs>
  <path class="cls-1" d="M1592.99,3888a18.02,18.02,0,1,1,10.58-3.45A17.974,17.974,0,0,1,1592.99,3888Zm0-34.48a16.474,16.474,0,1,0,15.67,11.38A16.428,16.428,0,0,0,1592.99,3853.52Zm-6.89,13.25h3.12v10.01h-3.12v-10.01Zm1.56-4.98a1.805,1.805,0,1,1-1.81,1.81,1.807,1.807,0,0,1,1.81-1.81m3.51,4.98h2.99v1.37h0.04a3.256,3.256,0,0,1,2.94-1.62c3.16,0,3.74,2.07,3.74,4.77v5.49h-3.11v-4.87c0-1.16-.03-2.65-1.62-2.65-1.62,0-1.87,1.26-1.87,2.57v4.95h-3.11v-10.01Z" transform="translate(-1575 -3852)"/>
</svg>
