<svg xmlns="http://www.w3.org/2000/svg" width="15.875" height="10.75" viewBox="0 0 15.875 10.75">
  <defs>
    <style>
      .cls-1 {
        fill: #34a3d6;
        fill-rule: evenodd;
      }
    </style>
  </defs>
  <path id="Shape_352_copy" data-name="Shape 352 copy" class="cls-1" d="M320.565,3971.27c-0.25-.22-0.453-0.12-0.453.22v8.42a0.61,0.61,0,0,0,.6.62h14.7a0.61,0.61,0,0,0,.6-0.62v-8.42c0-.34-0.2-0.44-0.452-0.22l-7.04,6.22a0.7,0.7,0,0,1-.9,0Zm0-1.08,7.039,6.22a0.7,0.7,0,0,0,.9,0l7.04-6.22c0.25-.22.185-0.4-0.144-0.4h-14.7C320.379,3969.79,320.315,3969.97,320.565,3970.19Z" transform="translate(-320.125 -3969.78)"/>
</svg>
