<svg xmlns="http://www.w3.org/2000/svg" width="36" height="36" viewBox="0 0 36 36">
  <defs>
    <style>
      .cls-1 {
        fill: #fff;
        fill-rule: evenodd;
      }
    </style>
  </defs>
  <path class="cls-1" d="M1542.99,3888a18.02,18.02,0,1,1,10.58-3.45A17.974,17.974,0,0,1,1542.99,3888Zm0-34.48a16.474,16.474,0,1,0,15.67,11.38A16.428,16.428,0,0,0,1542.99,3853.52Zm-6.38,21.78a1.867,1.867,0,0,1-1.23-1.2c-0.54-1.47-.7-7.61.33-8.82a2.034,2.034,0,0,1,1.35-.72c2.77-.29,11.33-0.25,12.32.1a1.926,1.926,0,0,1,1.21,1.17c0.59,1.52.61,7.04-.07,8.5a1.9,1.9,0,0,1-.87.88C1548.61,3875.75,1537.97,3875.75,1536.61,3875.3Zm4.4-2.88c1.67-.86,3.32-1.72,4.99-2.59l-4.99-2.6v5.19Z" transform="translate(-1525 -3852)"/>
</svg>
