<svg xmlns="http://www.w3.org/2000/svg" width="36" height="36" viewBox="0 0 36 36">
  <defs>
    <style>
      .cls-1 {
        fill: #fff;
        fill-rule: evenodd;
      }
    </style>
  </defs>
  <path class="cls-1" d="M1492.99,3888a18.02,18.02,0,1,1,10.58-3.45A17.974,17.974,0,0,1,1492.99,3888Zm0-34.48a16.474,16.474,0,1,0,15.67,11.38A16.428,16.428,0,0,0,1492.99,3853.52Zm2.58,11.03c0.51-.02,1.02-0.01,1.54-0.01h0.21v-2.67c-0.27-.03-0.56-0.07-0.85-0.08-0.52-.02-1.05-0.05-1.58-0.04a3.868,3.868,0,0,0-2.23.69,3.331,3.331,0,0,0-1.35,2.23,8.907,8.907,0,0,0-.09,1.15c-0.01.6,0,1.2,0,1.8v0.22h-2.56v2.99h2.54v7.5h3.11v-7.49h2.54c0.13-.99.25-1.98,0.39-3h-2.95s0.01-1.48.03-2.12A1.094,1.094,0,0,1,1495.57,3864.55Z" transform="translate(-1475 -3852)"/>
</svg>
