<svg xmlns="http://www.w3.org/2000/svg" width="16" height="16.53" viewBox="0 0 16 16.53">
  <defs>
    <style>
      .cls-1 {
        fill: #34a3d6;
        fill-rule: evenodd;
      }
    </style>
  </defs>
  <path class="cls-1" d="M334.141,3949.37a1.155,1.155,0,0,0-1.661,0l-0.83.86a1.152,1.152,0,0,1-1.659,0h0l-4.981-5.16a1.248,1.248,0,0,1,0-1.72l0.83-.86a1.247,1.247,0,0,0,0-1.72h0l-1.66-1.72a1.152,1.152,0,0,0-1.659,0h0l-2.076,2.15a1.156,1.156,0,0,0-.251,1.02,21.1,21.1,0,0,0,4.817,8.01,20.164,20.164,0,0,0,7.738,4.99,1.045,1.045,0,0,0,.979-0.26l2.075-2.15a1.246,1.246,0,0,0,0-1.72Z" transform="translate(-320.156 -3938.72)"/>
</svg>
