<svg xmlns="http://www.w3.org/2000/svg" width="18.62" height="21.906" viewBox="0 0 18.62 21.906">
  <defs>
    <style>
      .cls-1 {
        fill: #373b3d;
        fill-rule: evenodd;
      }
    </style>
  </defs>
  <path class="cls-1" d="M1481.71,68.742a0.766,0.766,0,0,1-.77-0.755V63.822a4.8,4.8,0,0,1,2.89-4.386l2.88-1.246-0.28-.523a13.055,13.055,0,0,1-1.58-5.465,5.41,5.41,0,0,1,10.82,0,13.057,13.057,0,0,1-1.58,5.465l-0.28.523,2.87,1.246a4.788,4.788,0,0,1,2.9,4.386v4.164a0.766,0.766,0,0,1-.77.755h-17.1Zm2.74-7.919a3.275,3.275,0,0,0-1.98,3V67.23h15.58V63.822a3.275,3.275,0,0,0-1.98-3l-3.2-1.384-0.26.257a3.022,3.022,0,0,1-4.7,0l-0.26-.257Zm5.81-12.471a3.87,3.87,0,0,0-3.88,3.851c0,2.484,2,7.1,3.88,7.1s3.87-4.62,3.87-7.1A3.861,3.861,0,0,0,1490.26,48.351Z" transform="translate(-1480.94 -46.844)"/>
</svg>
