<svg xmlns="http://www.w3.org/2000/svg" width="46" height="55.69" viewBox="0 0 46 55.69">
  <defs>
    <style>
      .cls-1 {
        fill: #34a3d6;
        fill-rule: evenodd;
      }
    </style>
  </defs>
  <path class="cls-1" d="M1164.77,1090.94l-2.67,2.68-1.72-1.73a20.177,20.177,0,0,0,2.16-24.36l-0.06-.1-1.77,1.13,0.05,0.09a18.066,18.066,0,0,1-.82,20.48s-0.25.34-.32,0.43c-0.23.29-.47,0.57-0.72,0.85l-0.08-.08-1.41,1.41v0.14a17.623,17.623,0,0,1-2.87,2.08c-0.53.31-1.08,0.59-1.62,0.84a17.894,17.894,0,0,1-14.88,0c-0.51-.23-1.03-0.5-1.55-0.8a18,18,0,0,1-7.05-7.44l-0.05-.1-1.87.97,0.05,0.09a20.057,20.057,0,0,0,31.32,5.86l1.73,1.73-2.67,2.67,6.62,6.63,1.48-1.49-1.29-1.29,3.85-3.86,1.29,1.29,1.48-1.49Zm-1.49,9.2-2.36-2.36,3.85-3.86,2.35,2.36Zm-30.27-14.23v-21.09h3.32l0.04,24.93a14.746,14.746,0,0,0,1.9,1.29l0.16,0.1v-34.79h3.33v36.12l0.08,0.02a15.13,15.13,0,0,0,1.9.37l0.12,0.01v-33.13h3.32v33.13l0.12-.02a12.231,12.231,0,0,0,1.9-.37l0.08-.02v-36.71h3.33v35.37l0.16-.09a12.061,12.061,0,0,0,1.94-1.38v-38.84h3.32v35.06l0.2-.36a14.675,14.675,0,0,0,1.89-7.08h0.01V1048.7h-7.52v4.95h-5.43v3.98h-3.32v-3.39h-7.53v8.47h-5.42v15.93a14.687,14.687,0,0,0,1.9,6.92Zm-5.55-7.48v-0.11a18.1,18.1,0,0,1,2.86-9.78l0.05-.09-1.76-1.14-0.06.09a20.173,20.173,0,0,0-3.19,10.92v0.11h2.1Zm1.04,5.96a17.809,17.809,0,0,1-.96-4.41l-0.01-.11-2.1.2,0.01,0.1a20.117,20.117,0,0,0,1.09,4.93l0.03,0.1,1.98-.7Z" transform="translate(-1125.38 -1048.72)"/>
</svg>
