<svg xmlns="http://www.w3.org/2000/svg" width="41.844" height="46.78" viewBox="0 0 41.844 46.78">
  <defs>
    <style>
      .cls-1 {
        fill: #34a3d6;
        fill-rule: evenodd;
      }
    </style>
  </defs>
  <path class="cls-1" d="M377.475,1157.65h-8.091a1.289,1.289,0,0,0-1.3,1.28v44.23a1.3,1.3,0,0,0,1.3,1.28h8.091a1.3,1.3,0,0,0,1.3-1.28v-44.23A1.289,1.289,0,0,0,377.475,1157.65Zm-7.206,39.95v-2.3h2.4v-2.16h-2.4v-2.3h2.4v-2.16h-2.4v-2.3h2.4v-2.16h-2.4v-2.3h2.4v-2.16h-2.4v-2.3h2.4v-2.16h-2.4V1173h2.4v-2.16h-2.4v-2.31h2.4v-2.15h-2.4v-2.31h2.4v-2.15h-2.4v-2.12h6.321v42.48h-6.321v-2.52h2.4v-2.16h-2.4Zm12.787-3.84a9.368,9.368,0,0,0,1.521-.62l3.708,2.74,3.278-3.23-2.768-3.66a9.246,9.246,0,0,0,.632-1.5l4.583-.65,0-4.57-4.582-.66a10.047,10.047,0,0,0-.63-1.5l2.773-3.66-3.274-3.23-3.71,2.74a10.456,10.456,0,0,0-1.521-.63l-0.663-4.52h-2.317v2.16h0.425l0.6,4.09,0.725,0.17a7.71,7.71,0,0,1,2.255.93l0.633,0.38,3.364-2.47,0.6,0.59-2.514,3.31,0.392,0.63a7.34,7.34,0,0,1,.935,2.23l0.17,0.71,4.152,0.6v0.83l-4.153.59-0.17.72a7.451,7.451,0,0,1-.939,2.22l-0.392.63,2.508,3.32-0.6.59-3.36-2.49-0.633.39a7.452,7.452,0,0,1-2.258.92l-0.725.17-0.606,4.09h-0.406l-0.006,2.16h2.3Zm2.035-9.21a4.98,4.98,0,0,0-5-4.94v2.16a2.78,2.78,0,1,1,0,5.56v2.15A4.971,4.971,0,0,0,385.091,1184.55Zm20.059-26.42h-4.8v39.07l1.271-.21c1.033-.16,4.012-0.35,5.39.81a2.153,2.153,0,0,1,.734,1.59,3.071,3.071,0,0,1-3.079,2.89h-24.58v2.16h24.58a5.248,5.248,0,0,0,5.237-4.79h0.043v-36.78A4.778,4.778,0,0,0,405.15,1158.13Zm-2.613,2.16h2.613a2.6,2.6,0,0,1,2.615,2.58v32.82a8.9,8.9,0,0,0-4.382-.98c-0.305,0-.589.01-0.846,0.02v-34.44Zm-4.421,3.28H380.089v2.15h18.027v-2.15Z" transform="translate(-368.094 -1157.66)"/>
</svg>
