<svg xmlns="http://www.w3.org/2000/svg" width="51.62" height="38.47" viewBox="0 0 51.62 38.47">
  <defs>
    <style>
      .cls-1 {
        fill: #3ca8d9;
        fill-rule: evenodd;
      }
    </style>
  </defs>
  <path class="cls-1" d="M995,1206.12a25.906,25.906,0,0,1,25.812-25.13,25.438,25.438,0,0,1,14.94,4.83l-2.04,2.04a22.667,22.667,0,0,0-12.9-4.01,23.059,23.059,0,0,0-22.979,22.27H995Zm25.822,13.36a8.11,8.11,0,0,1,0-16.22,7.946,7.946,0,0,1,4.07,1.15l0.53,0.31,18.09-18.13,2.01,2.02-3.51,3.53,0.36,0.54a25.788,25.788,0,0,1,4.26,13.44h-2.84a23.069,23.069,0,0,0-3.31-11.06l-0.52-.87-12.52,12.55,0.31,0.54a7.989,7.989,0,0,1,1.15,4.09A8.1,8.1,0,0,1,1020.82,1219.48Zm0-13.36a5.255,5.255,0,1,0,5.24,5.25A5.245,5.245,0,0,0,1020.82,1206.12Z" transform="translate(-995 -1181)"/>
</svg>
