<svg xmlns="http://www.w3.org/2000/svg" width="46" height="43.59" viewBox="0 0 46 43.59">
  <defs>
    <style>
      .cls-1 {
        fill: #34a3d6;
        fill-rule: evenodd;
      }
    </style>
  </defs>
  <path class="cls-1" d="M1422.29,1102.63h-21.77a1.3,1.3,0,0,1-1.29-1.31v-37.75a1.3,1.3,0,0,1,1.29-1.31h0.87a4.214,4.214,0,0,1,8.2,0h1.05a10.788,10.788,0,0,0,12.2-3.24,4.266,4.266,0,0,1,4.1,3.24h3.29a1.3,1.3,0,0,1,1.28,1.31v29.64Zm-20.93-2.18h19.42v-7.42a1.351,1.351,0,0,1,1.34-1.36h7.26v-27.23h-2.44a4.266,4.266,0,0,1-4.1,3.24v-2.18a2.094,2.094,0,0,0,1.81-1.06h-5.81a4.258,4.258,0,0,1-4.1,3.24v-2.18a2.123,2.123,0,0,0,1.82-1.06h-6.97a4.258,4.258,0,0,1-4.1,3.24v-2.18a2.094,2.094,0,0,0,1.81-1.06h-5.94v36.01Zm21.55-6.6v5.06l4.96-5.06h-4.96Zm-1.88-31.59h3.62A2.075,2.075,0,0,0,1421.03,1062.26Zm-8.1,0h3.63A2.084,2.084,0,0,0,1412.93,1062.26Zm-9.25,0h3.62A2.075,2.075,0,0,0,1403.68,1062.26Zm-5.06,40.37h-2.68a1.342,1.342,0,0,1-1.33-1.36v-37.65a1.342,1.342,0,0,1,1.33-1.36h2.68v2.18h-1.88v36.01h1.88v2.18Zm-8.07,0h-3.72a1.349,1.349,0,0,1-1.33-1.36v-37.53l2.12-3.37a1.291,1.291,0,0,1,1.11-.66h0a1.289,1.289,0,0,1,1.11.67l2.04,3.37v37.52A1.349,1.349,0,0,1,1390.55,1102.63Zm-2.92-2.18h2.12v-2h-2.12v2Zm0-4.18h2.12v-30.34h-2.12v30.34Zm0.4-32.51h1.35l-0.67-1.1Zm26.71,27.92a9.237,9.237,0,0,1,0-18.47v2.18a7.057,7.057,0,1,0,6.9,7.06h2.13A9.147,9.147,0,0,1,1414.74,1091.68Z" transform="translate(-1385.5 -1059.03)"/>
</svg>
