<svg xmlns="http://www.w3.org/2000/svg" width="50.876" height="52.1" viewBox="0 0 50.876 52.1">
  <defs>
    <style>
      .cls-1 {
        fill: #34a3d6;
        fill-rule: evenodd;
      }
    </style>
  </defs>
  <path class="cls-1" d="M713.741,1175.38l-10.884,10.88-5.014-5.01-1.71,1.71,6.724,6.72,12.593-12.6Zm-11.216,17.46a7.475,7.475,0,1,1,3.62-14.01l1.173-2.12a9.9,9.9,0,1,0,5.1,8.66H710A7.48,7.48,0,0,1,702.525,1192.84Zm25.9-3.36,0.007-8.01-5.369-1.46a20.517,20.517,0,0,0-1.994-4.82l3.2-5.22-5.694-5.7-5.272,3.14a20.619,20.619,0,0,0-4.812-2l-1.472-5.81h-8.044l-1.468,5.81a21.125,21.125,0,0,0-4.763,1.97l-5.088-3.02-5.7,5.67,3,5.1a20.732,20.732,0,0,0-2.019,4.85l-5.369,1.69-0.016,8.01,5.377,1.26a20.555,20.555,0,0,0,1.969,4.77l-3.221,4.95,5.677,5.7,5.284-2.85a20.783,20.783,0,0,0,4.831,2.02l1.492,6.15,8.071,0.01,1.443-6.15a21,21,0,0,0,4.8-1.99l5.292,3.1,5.7-5.69-3.216-5.18a20.793,20.793,0,0,0,2-4.82Zm-7.218,11.12-3.023,3.02-4.924-2.89-0.619.39a18.416,18.416,0,0,1-5.449,2.25l-0.73.17-1.344,5.73-4.254-.01-1.391-5.73-0.722-.17a18.387,18.387,0,0,1-5.443-2.27l-0.6-.37-4.919,2.66-3.023-3.04,2.981-4.58-0.4-.65a18.349,18.349,0,0,1-2.251-5.45l-0.17-.73-4.955-1.16,0.009-4.32,4.977-1.57,0.159-.67a18.309,18.309,0,0,1,2.27-5.44l0.387-.62-2.785-4.73,3.039-3.02,4.722,2.8,0.622-.38a18.136,18.136,0,0,1,5.4-2.24l0.716-.17,1.363-5.4h4.28l1.367,5.41,0.715,0.16a18.676,18.676,0,0,1,5.447,2.26l0.623,0.39,4.9-2.92,3.018,3.02-2.972,4.85,0.393,0.64a18.227,18.227,0,0,1,2.258,5.44l0.164,0.71,4.96,1.35,0,4.32-4.963,1.37-0.166.7a18.242,18.242,0,0,1-2.264,5.44l-0.395.64Z" transform="translate(-677.562 -1159.59)"/>
</svg>
