<svg xmlns="http://www.w3.org/2000/svg" width="38.594" height="44.47" viewBox="0 0 38.594 44.47">
  <defs>
    <style>
      .cls-1 {
        fill: #34a3d6;
        fill-rule: evenodd;
      }
    </style>
  </defs>
  <path class="cls-1" d="M823.183,1256.99l-0.3-.08a26.239,26.239,0,0,1-19-25.05v-13.64l19.294-5.69,19.295,5.69v13.64a26.24,26.24,0,0,1-19,25.05ZM806.02,1219.8v12.06a24.127,24.127,0,0,0,17.163,22.94,24.128,24.128,0,0,0,17.164-22.94V1219.8l-17.164-5.06Zm17.163,26.25a11.53,11.53,0,1,1,11.636-11.53A11.594,11.594,0,0,1,823.183,1246.05Zm0-20.95a9.42,9.42,0,1,0,9.5,9.42A9.476,9.476,0,0,0,823.183,1225.1Zm1.065-4.11h-2.131v-7.36h2.131v7.36Zm0,34.91h-2.131v-7.65h2.131v7.65Zm-1.983-17.1-4.534-4.49,1.507-1.5,3.027,3,4.863-4.82,1.506,1.5Z" transform="translate(-803.875 -1212.53)"/>
</svg>
