<svg xmlns="http://www.w3.org/2000/svg" width="15.875" height="10.75" viewBox="0 0 15.875 10.75">
  <defs>
    <style>
      .cls-1 {
        fill: #cdcdcd;
        fill-rule: evenodd;
      }
    </style>
  </defs>
  <path id="Shape_352_copy" data-name="Shape 352 copy" class="cls-1" d="M311.565,1047.27c-0.25-.22-0.453-0.12-0.453.22v8.42a0.61,0.61,0,0,0,.6.62h14.7a0.61,0.61,0,0,0,.6-0.62v-8.42c0-.34-0.2-0.44-0.452-0.22l-7.039,6.22a0.7,0.7,0,0,1-.905,0Zm0-1.08,7.039,6.22a0.7,0.7,0,0,0,.905,0l7.039-6.22c0.25-.22.185-0.4-0.144-0.4h-14.7C311.379,1045.79,311.315,1045.97,311.565,1046.19Z" transform="translate(-311.125 -1045.78)"/>
</svg>
